<mxfile host="app.diagrams.net" modified="2021-09-03T06:44:49.275Z" agent="5.0 (Windows NT 10.0; Win64; x64) AppleWebKit/537.36 (KHTML, like Gecko) Chrome/93.0.4577.58 Safari/537.36" etag="qYEzIrdtLK5_HL8NfBXr" version="15.0.6" type="github">
  <diagram id="v7KO8gpId23ziDgO45k3" name="Page-1">
    <mxGraphModel dx="912" dy="557" grid="1" gridSize="10" guides="1" tooltips="1" connect="1" arrows="1" fold="1" page="1" pageScale="1" pageWidth="827" pageHeight="1169" math="0" shadow="0">
      <root>
        <mxCell id="0" />
        <mxCell id="1" parent="0" />
        <mxCell id="g43F8QB1GavJYutC3YBD-1" value="big" style="rounded=0;whiteSpace=wrap;html=1;" vertex="1" parent="1">
          <mxGeometry x="270" y="160" width="120" height="60" as="geometry" />
        </mxCell>
      </root>
    </mxGraphModel>
  </diagram>
</mxfile>
